<?xml version="1.0" encoding="UTF-8" standalone="no"?>
<svg viewBox="0 0 50 50"
 xmlns="http://www.w3.org/2000/svg" xmlns:xlink="http://www.w3.org/1999/xlink" version="1.2" baseProfile="tiny">
<title>Qt SVG Document</title>
<desc>Generated with Qt</desc>
<defs>
<linearGradient gradientUnits="userSpaceOnUse" x1="26.5875" y1="255.573" x2="26.5875" y2="240.573" id="gradient1">
    <stop offset="0" stop-color="#67686c" stop-opacity="1" />
    <stop offset="1" stop-color="#7c7d82" stop-opacity="1" />
</linearGradient>
</defs>
<g fill="none" stroke="black" stroke-width="1" fill-rule="evenodd" stroke-linecap="square" stroke-linejoin="bevel" >

<g fill="url(#gradient1)" stroke="none" transform="matrix(1.72414,0,0,2.94118,-27.5862,-3095.65)"
font-family="Cousine Nerd Font" font-size="10" font-weight="400" font-style="normal" 
>
<path vector-effect="none" fill-rule="evenodd" d="M16,1055.52 C16,1053.86 17.3431,1052.52 19,1052.52 L42,1052.52 C43.6569,1052.52 45,1053.86 45,1055.52 L45,1066.52 C45,1068.18 43.6569,1069.52 42,1069.52 L19,1069.52 C17.3431,1069.52 16,1068.18 16,1066.52 L16,1055.52"/>
</g>

<g fill="#ffffff" fill-opacity="1" stroke="none" transform="matrix(0,-2.94118,1.72414,0,-27.5862,-3095.65)"
font-family="Cousine Nerd Font" font-size="10" font-weight="400" font-style="normal" 
opacity="0.12" >
<rect x="-1053.52" y="19" width="0.999998" height="23"/>
</g>

<g fill="#d9d9db" fill-opacity="1" stroke="none" transform="matrix(1.72414,0,0,2.94118,-29.3103,-3086.82)"
font-family="Cousine Nerd Font" font-size="10" font-weight="400" font-style="normal" 
>
<rect x="27" y="1056.52" width="1" height="4.99993"/>
</g>

<g fill="#d9d9db" fill-opacity="1" stroke="none" transform="matrix(1.72414,0,0,2.94118,-29.3103,-3086.82)"
font-family="Cousine Nerd Font" font-size="10" font-weight="400" font-style="normal" 
>
<rect x="32" y="1056.52" width="1" height="5.00005"/>
</g>

<g fill="#d9d9db" fill-opacity="1" stroke="none" transform="matrix(1.72414,0,0,2.94118,-29.3103,-3086.82)"
font-family="Cousine Nerd Font" font-size="10" font-weight="400" font-style="normal" 
>
<rect x="27" y="1056.52" width="5" height="1.00009"/>
</g>

<g fill="#d9d9db" fill-opacity="1" stroke="none" transform="matrix(1.72414,0,0,2.94118,-29.3103,-3086.82)"
font-family="Cousine Nerd Font" font-size="10" font-weight="400" font-style="normal" 
>
<rect x="27" y="1060.52" width="5" height="1.00004"/>
</g>

<g fill="#535457" fill-opacity="1" stroke="none" transform="matrix(1.72414,0,0,2.94118,-29.3103,-3086.82)"
font-family="Cousine Nerd Font" font-size="10" font-weight="400" font-style="normal" 
>
<rect x="27" y="1061.52" width="6" height="1"/>
</g>

<g fill="#535457" fill-opacity="1" stroke="none" transform="matrix(1.72414,0,0,2.94118,-29.3103,-3086.82)"
font-family="Cousine Nerd Font" font-size="10" font-weight="400" font-style="normal" 
>
<rect x="28" y="1057.52" width="4" height="1"/>
</g>

<g fill="#d9d9db" fill-opacity="1" stroke="none" transform="matrix(1.72414,0,0,2.94118,-29.3103,-3086.82)"
font-family="Cousine Nerd Font" font-size="10" font-weight="400" font-style="normal" 
>
<rect x="32" y="1057.52" width="4" height="1.00004"/>
</g>

<g fill="#d9d9db" fill-opacity="1" stroke="none" transform="matrix(1.72414,0,0,2.94118,-29.3103,-3086.82)"
font-family="Cousine Nerd Font" font-size="10" font-weight="400" font-style="normal" 
>
<rect x="30" y="1054.52" width="6" height="1.00004"/>
</g>

<g fill="#d9d9db" fill-opacity="1" stroke="none" transform="matrix(1.72414,0,0,2.94118,-29.3103,-3086.82)"
font-family="Cousine Nerd Font" font-size="10" font-weight="400" font-style="normal" 
>
<rect x="35" y="1054.52" width="1" height="4.00009"/>
</g>

<g fill="#d9d9db" fill-opacity="1" stroke="none" transform="matrix(1.72414,0,0,2.94118,-29.3103,-3086.82)"
font-family="Cousine Nerd Font" font-size="10" font-weight="400" font-style="normal" 
>
<rect x="30" y="1054.52" width="1" height="3"/>
</g>

<g fill="#535457" fill-opacity="1" stroke="none" transform="matrix(1.72414,0,0,2.94118,-29.3103,-3086.82)"
font-family="Cousine Nerd Font" font-size="10" font-weight="400" font-style="normal" 
>
<rect x="31" y="1055.52" width="4" height="1"/>
</g>

<g fill="#535457" fill-opacity="1" stroke="none" transform="matrix(1.72414,0,0,2.94118,-29.3103,-3086.82)"
font-family="Cousine Nerd Font" font-size="10" font-weight="400" font-style="normal" 
>
<rect x="33" y="1058.52" width="3" height="1"/>
</g>

<g fill="none" stroke="#000000" stroke-opacity="1" stroke-width="1" stroke-linecap="square" stroke-linejoin="bevel" transform="matrix(1,0,0,1,0,0)"
font-family="Cousine Nerd Font" font-size="10" font-weight="400" font-style="normal" 
>
</g>
</g>
</svg>
