<?xml version="1.0" encoding="UTF-8" standalone="no"?>
<svg viewBox="0 0 50 50"
 xmlns="http://www.w3.org/2000/svg" xmlns:xlink="http://www.w3.org/1999/xlink" version="1.2" baseProfile="tiny">
<title>Qt SVG Document</title>
<desc>Generated with Qt</desc>
<defs>
<linearGradient gradientUnits="userSpaceOnUse" x1="26.5875" y1="255.573" x2="26.5875" y2="240.573" id="gradient1">
    <stop offset="0" stop-color="#58595c" stop-opacity="1" />
    <stop offset="1" stop-color="#67686b" stop-opacity="1" />
</linearGradient>
</defs>
<g fill="none" stroke="black" stroke-width="1" fill-rule="evenodd" stroke-linecap="square" stroke-linejoin="bevel" >

<g fill="url(#gradient1)" stroke="none" transform="matrix(1.72414,0,0,2.94117,-72.4138,-2622.11)"
font-family="Cousine Nerd Font" font-size="10" font-weight="400" font-style="normal" 
>
<path vector-effect="none" fill-rule="evenodd" d="M42,894.52 C42,892.863 43.3432,891.52 45,891.52 L68,891.52 C69.6569,891.52 71,892.863 71,894.52 L71,905.52 C71,907.177 69.6569,908.52 68,908.52 L45,908.52 C43.3432,908.52 42,907.177 42,905.52 L42,894.52"/>
</g>

<g fill="#ffffff" fill-opacity="1" stroke="none" transform="matrix(0,-2.94117,1.72414,0,-72.4138,-2622.11)"
font-family="Cousine Nerd Font" font-size="10" font-weight="400" font-style="normal" 
opacity="0.09" >
<rect x="-892.52" y="45" width="0.999998" height="23"/>
</g>

<g fill="#c3c3c5" fill-opacity="1" stroke="none" transform="matrix(1.72414,0,0,2.94117,124.077,-57.5653)"
font-family="Cousine Nerd Font" font-size="10" font-weight="400" font-style="normal" 
>
<path vector-effect="none" fill-rule="nonzero" d="M-61.9648,24.5723 L-61.9648,25.5723 L-60.9648,25.5723 L-60.9648,26.5723 L-59.9648,26.5723 L-59.9648,27.5723 L-58.9648,27.5723 L-58.9648,28.5723 L-59.9648,28.5723 L-59.9648,29.5723 L-60.9648,29.5723 L-60.9648,30.5723 L-61.9648,30.5723 L-61.9648,31.5723 L-58.9648,31.5723 L-58.9648,30.5723 L-57.9648,30.5723 L-57.9648,29.5723 L-56.9648,29.5723 L-56.9648,30.5723 L-55.9648,30.5723 L-55.9648,31.5723 L-52.9648,31.5723 L-52.9648,30.5723 L-53.9648,30.5723 L-53.9648,29.5723 L-54.9648,29.5723 L-54.9648,28.5723 L-55.9648,28.5723 L-55.9648,27.5723 L-54.9648,27.5723 L-54.9648,26.5723 L-53.9648,26.5723 L-53.9648,25.5723 L-52.9648,25.5723 L-52.9648,24.5723 L-55.9648,24.5723 L-55.9648,25.5723 L-56.9648,25.5723 L-56.9648,26.5723 L-57.9648,26.5723 L-57.9648,25.5723 L-58.9648,25.5723 L-58.9648,24.5723 L-61.9648,24.5723"/>
</g>

<g fill="#494a4d" fill-opacity="1" stroke="none" transform="matrix(1.72414,0,0,-2.94117,156.836,-2635.56)"
font-family="Cousine Nerd Font" font-size="10" font-weight="400" font-style="normal" 
>
<rect x="-80.9643" y="-909.091" width="3" height="0.999997"/>
</g>

<g fill="#494a4d" fill-opacity="1" stroke="none" transform="matrix(1.72414,0,0,-2.94117,156.836,-2635.56)"
font-family="Cousine Nerd Font" font-size="10" font-weight="400" font-style="normal" 
>
<rect x="-74.9643" y="-909.091" width="3" height="0.999997"/>
</g>

<g fill="none" stroke="#000000" stroke-opacity="1" stroke-width="1" stroke-linecap="square" stroke-linejoin="bevel" transform="matrix(1,0,0,1,0,0)"
font-family="Cousine Nerd Font" font-size="10" font-weight="400" font-style="normal" 
>
</g>
</g>
</svg>
