<?xml version="1.0" encoding="UTF-8" standalone="no"?>
<svg viewBox="0 0 50 50"
 xmlns="http://www.w3.org/2000/svg" xmlns:xlink="http://www.w3.org/1999/xlink" version="1.2" baseProfile="tiny">
<title>Qt SVG Document</title>
<desc>Generated with Qt</desc>
<defs>
</defs>
<g fill="none" stroke="black" stroke-width="1" fill-rule="evenodd" stroke-linecap="square" stroke-linejoin="bevel" >

<g fill="#2c2c30" fill-opacity="1" stroke="none" transform="matrix(1.72414,0,0,2.94118,-36.2069,-3213.29)"
font-family="Cousine Nerd Font" font-size="10" font-weight="400" font-style="normal" 
>
<path vector-effect="none" fill-rule="evenodd" d="M21,1095.52 C21,1093.86 22.3431,1092.52 24,1092.52 L47,1092.52 C48.6569,1092.52 50,1093.86 50,1095.52 L50,1106.52 C50,1108.18 48.6569,1109.52 47,1109.52 L24,1109.52 C22.3431,1109.52 21,1108.18 21,1106.52 L21,1095.52"/>
</g>

<g fill="#3d3e40" fill-opacity="1" stroke="none" transform="matrix(1.72414,0,0,2.94118,-36.2069,-3213.29)"
font-family="Cousine Nerd Font" font-size="10" font-weight="400" font-style="normal" 
>
<path vector-effect="none" fill-rule="evenodd" d="M22,1095.52 C22,1094.42 22.8954,1093.52 24,1093.52 L47,1093.52 C48.1046,1093.52 49,1094.42 49,1095.52 L49,1106.52 C49,1107.62 48.1046,1108.52 47,1108.52 L24,1108.52 C22.8954,1108.52 22,1107.62 22,1106.52 L22,1095.52"/>
</g>

<g fill="#d9d9db" fill-opacity="1" stroke="none" transform="matrix(1.72414,0,0,2.94118,-36.2069,-3213.29)"
font-family="Cousine Nerd Font" font-size="10" font-weight="400" font-style="normal" 
>
<path vector-effect="none" fill-rule="nonzero" d="M31,1097.52 L31,1104.52 L33,1104.52 L38,1104.52 L39,1104.52 L40,1104.52 L40,1097.52 L39,1097.52 L38,1097.52 L33,1097.52 L31,1097.52 M33,1099.52 L38,1099.52 L38,1102.52 L33,1102.52 L33,1099.52"/>
</g>

<g fill="none" stroke="#000000" stroke-opacity="1" stroke-width="1" stroke-linecap="square" stroke-linejoin="bevel" transform="matrix(1,0,0,1,0,0)"
font-family="Cousine Nerd Font" font-size="10" font-weight="400" font-style="normal" 
>
</g>
</g>
</svg>
