<?xml version="1.0" encoding="UTF-8" standalone="no"?>
<svg viewBox="0 0 50 50"
 xmlns="http://www.w3.org/2000/svg" xmlns:xlink="http://www.w3.org/1999/xlink" version="1.2" baseProfile="tiny">
<title>Qt SVG Document</title>
<desc>Generated with Qt</desc>
<defs>
<linearGradient gradientUnits="userSpaceOnUse" x1="26.5875" y1="255.573" x2="26.5875" y2="240.573" id="gradient1">
    <stop offset="0" stop-color="#5d5e61" stop-opacity="1" />
    <stop offset="1" stop-color="#656669" stop-opacity="1" />
</linearGradient>
</defs>
<g fill="none" stroke="black" stroke-width="1" fill-rule="evenodd" stroke-linecap="square" stroke-linejoin="bevel" >

<g fill="url(#gradient1)" stroke="none" transform="matrix(1.72414,0,0,2.94118,-94.8276,-3066.24)"
font-family="Cousine Nerd Font" font-size="10" font-weight="400" font-style="normal" 
>
<path vector-effect="none" fill-rule="evenodd" d="M55,1045.52 C55,1043.86 56.3431,1042.52 58,1042.52 L81,1042.52 C82.6569,1042.52 84,1043.86 84,1045.52 L84,1056.52 C84,1058.18 82.6569,1059.52 81,1059.52 L58,1059.52 C56.3431,1059.52 55,1058.18 55,1056.52 L55,1045.52"/>
</g>

<g fill="#ffffff" fill-opacity="1" stroke="none" transform="matrix(0,-2.94118,1.72414,0,-94.8276,-3066.24)"
font-family="Cousine Nerd Font" font-size="10" font-weight="400" font-style="normal" 
opacity="0.09" >
<rect x="-1043.52" y="58" width="0.999998" height="23"/>
</g>

<g fill="#c3c3c5" fill-opacity="1" stroke="none" transform="matrix(1.72414,0,0,2.94118,70.6897,-17.647)"
font-family="Cousine Nerd Font" font-size="10" font-weight="400" font-style="normal" 
>
<path vector-effect="none" fill-rule="nonzero" d="M-31,11 L-31,18 L-29,18 L-24,18 L-23,18 L-22,18 L-22,11 L-23,11 L-24,11 L-29,11 L-31,11 M-29,13 L-24,13 L-24,16 L-29,16 L-29,13"/>
</g>

<g fill="#494a4d" fill-opacity="1" stroke="none" transform="matrix(1.72414,0,0,2.94118,58.6207,-3075.06)"
font-family="Cousine Nerd Font" font-size="10" font-weight="400" font-style="normal" 
>
<rect x="-24" y="1057.52" width="9" height="1"/>
</g>

<g fill="#494a4d" fill-opacity="1" stroke="none" transform="matrix(1.72414,0,0,2.94118,58.6207,-3075.06)"
font-family="Cousine Nerd Font" font-size="10" font-weight="400" font-style="normal" 
>
<rect x="-22" y="1052.52" width="5" height="1"/>
</g>

<g fill="none" stroke="#000000" stroke-opacity="1" stroke-width="1" stroke-linecap="square" stroke-linejoin="bevel" transform="matrix(1,0,0,1,0,0)"
font-family="Cousine Nerd Font" font-size="10" font-weight="400" font-style="normal" 
>
</g>
</g>
</svg>
