<?xml version="1.0" encoding="UTF-8" standalone="no"?>
<svg viewBox="0 0 50 50"
 xmlns="http://www.w3.org/2000/svg" xmlns:xlink="http://www.w3.org/1999/xlink" version="1.2" baseProfile="tiny">
<title>Qt SVG Document</title>
<desc>Generated with Qt</desc>
<defs>
</defs>
<g fill="none" stroke="black" stroke-width="1" fill-rule="evenodd" stroke-linecap="square" stroke-linejoin="bevel" >

<g fill="#2c2c30" fill-opacity="1" stroke="none" transform="matrix(1.72414,0,0,2.94118,-44.1164,-704.626)"
font-family="Cousine Nerd Font" font-size="10" font-weight="400" font-style="normal" 
>
<path vector-effect="none" fill-rule="evenodd" d="M25.5875,242.573 C25.5875,240.916 26.9307,239.573 28.5875,239.573 L51.5875,239.573 C53.2444,239.573 54.5875,240.916 54.5875,242.573 L54.5875,253.573 C54.5875,255.23 53.2444,256.573 51.5875,256.573 L28.5875,256.573 C26.9307,256.573 25.5875,255.23 25.5875,253.573 L25.5875,242.573"/>
</g>

<g fill="#3d3e40" fill-opacity="1" stroke="none" transform="matrix(1.72414,0,0,2.94118,-44.1164,-704.626)"
font-family="Cousine Nerd Font" font-size="10" font-weight="400" font-style="normal" 
>
<path vector-effect="none" fill-rule="evenodd" d="M26.5875,242.573 C26.5875,241.468 27.4829,240.573 28.5875,240.573 L51.5875,240.573 C52.6921,240.573 53.5875,241.468 53.5875,242.573 L53.5875,253.573 C53.5875,254.678 52.6921,255.573 51.5875,255.573 L28.5875,255.573 C27.4829,255.573 26.5875,254.678 26.5875,253.573 L26.5875,242.573"/>
</g>

<g fill="#d9d9db" fill-opacity="1" stroke="none" transform="matrix(1.72414,0,0,2.94118,-9.63363,-798.744)"
font-family="Cousine Nerd Font" font-size="10" font-weight="400" font-style="normal" 
>
<rect x="15.5875" y="281.573" width="9" height="2"/>
</g>

<g fill="none" stroke="#000000" stroke-opacity="1" stroke-width="1" stroke-linecap="square" stroke-linejoin="bevel" transform="matrix(1,0,0,1,0,0)"
font-family="Cousine Nerd Font" font-size="10" font-weight="400" font-style="normal" 
>
</g>
</g>
</svg>
